<svg width="122" height="38" viewBox="0 0 122 38" fill="none" xmlns="http://www.w3.org/2000/svg">
<path d="M11.3069 26.7049L11.4241 27.0456C11.4055 27.0066 11.3626 26.8874 11.3069 26.7049ZM5.86454 24.2818C6.07035 22.4518 6.76922 21.4267 8.08621 20.3759C9.97059 18.9528 12.3245 19.7578 12.3245 19.7578V14.9815C12.8967 14.9664 13.4692 15.0031 14.0352 15.0911V21.2361C14.0352 21.2361 11.682 20.4311 9.79766 21.8543C8.48138 22.905 7.78108 23.9308 7.57599 25.7608C7.56956 26.7557 7.74321 28.0552 8.54284 29.1788C8.34513 29.0699 8.14362 28.9458 7.93829 28.8065C6.17682 27.5357 5.85597 25.6299 5.86454 24.2818ZM23.7544 6.15137C22.4581 4.62523 21.9679 3.08438 21.7907 2.00195H23.4214C23.4214 2.00195 23.0962 4.8401 25.4658 7.63115L25.4987 7.66868C24.86 7.23707 24.2744 6.72761 23.7544 6.15137Z" fill="#EE1D52"/>
<path d="M31.6098 10.479V16.5003C31.6098 16.5003 29.5289 16.4135 27.989 15.9919C25.8388 15.4032 24.4567 14.5011 24.4567 14.5011C24.4567 14.5011 23.502 13.8565 23.4249 13.8123V26.2517C23.4249 26.9434 23.2484 28.6726 22.7103 30.1156C22.0078 32.0023 20.9238 33.2407 20.7244 33.4931C20.7244 33.4931 19.406 35.1679 17.08 36.2952C14.9834 37.3121 13.1426 37.2863 12.5924 37.3121C12.5924 37.3121 9.41031 37.4475 6.54695 35.4475C5.92751 35.0074 5.3495 34.5086 4.8205 33.9574L4.83479 33.9677C7.69887 35.9677 10.8802 35.8323 10.8802 35.8323C11.4312 35.8066 13.272 35.8323 15.3679 34.8154C17.6924 33.6881 19.0123 32.0133 19.0123 32.0133C19.2095 31.7609 20.2985 30.5225 20.9981 28.6351C21.5348 27.1928 21.7127 25.4636 21.7127 24.7712V12.3325C21.7899 12.3774 22.7446 13.022 22.7446 13.022C22.7446 13.022 24.1266 13.9256 26.2768 14.5128C27.8175 14.9337 29.8976 15.0213 29.8976 15.0213V10.3031C30.6094 10.4746 31.2161 10.5216 31.6098 10.479Z" fill="#EE1D52"/>
<path d="M29.8984 10.303V15.0205C29.8984 15.0205 27.8182 14.9329 26.2775 14.512C24.1273 13.9233 22.7453 13.0212 22.7453 13.0212C22.7453 13.0212 21.7906 12.3766 21.7134 12.3317V24.7682C21.7134 25.4606 21.5369 27.1898 20.9988 28.6321C20.2964 30.5195 19.2124 31.758 19.013 32.0104C19.013 32.0104 17.6946 33.6851 15.3686 34.8124C13.2727 35.8294 11.4319 35.8036 10.8809 35.8294C10.8809 35.8294 7.69957 35.9648 4.83549 33.9647L4.8212 33.9544C4.51898 33.6397 4.23435 33.3075 3.96869 32.9596C3.05473 31.7616 2.49449 30.3466 2.35371 29.9426C2.35329 29.9409 2.35329 29.9392 2.35371 29.9375C2.12647 29.2348 1.65055 27.5497 1.71558 25.9168C1.83063 23.0353 2.77389 21.2678 3.02328 20.8241C3.68408 19.6163 4.54338 18.5358 5.56294 17.6305C6.46213 16.8486 7.48183 16.2269 8.57995 15.7909C9.26468 15.4979 9.97818 15.282 10.708 15.147C11.2418 15.0488 11.7823 14.9934 12.3244 14.9815V19.7549C12.3244 19.7549 9.97055 18.9499 8.08617 20.373C6.76918 21.4238 6.0703 22.4488 5.8645 24.2789C5.85593 25.6269 6.17678 27.5327 7.93682 28.805C8.14167 28.9448 8.34318 29.0689 8.54136 29.1774C8.84908 29.6053 9.22303 29.9782 9.64827 30.2811C11.3676 31.4504 12.8082 31.5321 14.6504 30.7727C15.8802 30.2716 16.8013 29.1273 17.2379 27.8587C17.5074 27.067 17.5038 26.2693 17.5038 25.4459V2.00269H21.7913C21.9686 3.08511 22.4588 4.62596 23.755 6.1521C24.275 6.72834 24.8607 7.2378 25.4993 7.66941C25.688 7.87913 26.6527 8.91519 27.8911 9.55243C28.5299 9.88124 29.2035 10.1331 29.8984 10.303Z" fill="white"/>
<path d="M8.57996 15.791C7.48184 16.227 6.46214 16.8487 5.56295 17.6306C4.54331 18.538 3.68447 19.6208 3.02472 20.8308C2.77533 21.2723 1.83207 23.042 1.71702 25.9236C1.65199 27.5564 2.12791 29.2415 2.35515 29.9442C2.35472 29.9459 2.35472 29.9477 2.35515 29.9494C2.49807 30.3497 3.05616 31.7647 3.97013 32.9663C4.23579 33.3143 4.52042 33.6464 4.82263 33.9612C3.85379 33.2712 2.98973 32.437 2.25868 31.4858C1.35258 30.2989 0.793765 28.8979 0.647989 28.4843L0.644416 28.4755V28.4696C0.417175 27.7691 -0.0601714 26.0825 0.00628562 24.4475C0.121335 21.5659 1.0646 19.7984 1.31399 19.3547C1.97355 18.1446 2.83241 17.0617 3.85222 16.1545C4.75122 15.3724 5.77096 14.7506 6.86923 14.3149C7.55396 14.0219 8.26746 13.806 8.99728 13.6711C10.097 13.473 11.2202 13.4559 12.3251 13.6203V14.9816C11.7831 14.9918 11.2427 15.0455 10.7087 15.142C9.97847 15.2786 9.26472 15.4962 8.57996 15.791Z" fill="#69C9D0"/>
<path d="M21.7906 2.00273H17.5031V25.4474C17.5031 26.2708 17.5066 27.0663 17.2372 27.8602C16.8042 29.1274 15.8831 30.2716 14.6554 30.7793C12.8125 31.5417 11.3719 31.457 9.65329 30.2878C9.22806 29.9848 8.8541 29.6119 8.54639 29.184C10.0106 29.9883 11.3211 29.9743 12.9447 29.3032C14.1652 28.7918 15.0942 27.6476 15.5229 26.3797C15.7931 25.588 15.7895 24.7903 15.7895 23.9676V0.521484H21.7099C21.7099 0.521484 21.6427 1.10501 21.7906 2.00273ZM29.8984 8.99912V10.303C29.2032 10.1332 28.5295 9.88134 27.8904 9.55248C26.652 8.91524 25.6873 7.87917 25.4986 7.66946C25.7174 7.81748 25.9446 7.95189 26.1789 8.07196C27.6846 8.84607 29.1638 9.07786 29.8984 8.99912Z" fill="#69C9D0"/>
<path d="M93.2505 21.2252C93.2504 21.5605 93.2985 21.8941 93.3934 22.2149C93.3988 22.2376 93.4055 22.2599 93.4134 22.2818C93.6421 23.0407 94.1007 23.7043 94.722 24.1755C95.3433 24.6468 96.0947 24.9009 96.8663 24.9007V28.6682C95.0863 28.6682 93.8107 28.7322 91.8706 27.5504C89.6554 26.2024 88.4106 23.7373 88.4106 21.1773C88.4106 18.5386 89.8026 15.8933 92.1629 14.6196C93.8736 13.6953 95.1756 13.6887 96.8663 13.6887V17.454C95.9074 17.4542 94.9878 17.8465 94.3098 18.5448C93.6317 19.243 93.2507 20.1899 93.2505 21.1773V21.2252Z" fill="#69C9D0"/>
<path d="M100.51 21.2252C100.511 21.5606 100.462 21.8941 100.367 22.2149C100.362 22.2377 100.355 22.2601 100.347 22.2818C100.119 23.0408 99.6602 23.7046 99.0388 24.1758C98.4175 24.6471 97.6659 24.9011 96.8942 24.9007V28.6682C98.675 28.6682 99.9498 28.7322 101.89 27.5504C104.105 26.2024 105.351 23.7373 105.351 21.1773C105.351 18.5386 103.958 15.8933 101.598 14.6196C99.8877 13.6953 98.5849 13.6887 96.8942 13.6887V17.454C97.8533 17.454 98.773 17.8463 99.4513 18.5445C100.129 19.2427 100.511 20.1898 100.511 21.1773L100.51 21.2252Z" fill="#EE1D52"/>
<path d="M40.8953 10.2722H54.2874L53.0498 14.067H49.5483V28.5881H45.2343V14.067H40.8953V10.2722ZM76.389 10.2722V14.067H80.728V28.5881H85.0392V14.067H88.5407L89.7812 10.2722H76.389ZM57.2008 14.5968C57.6134 14.5968 58.0167 14.4708 58.3597 14.2348C58.7027 13.9988 58.9701 13.6633 59.1279 13.2708C59.2858 12.8783 59.3271 12.4465 59.2466 12.0298C59.1661 11.6131 58.9675 11.2304 58.6758 10.93C58.3841 10.6296 58.0124 10.4251 57.6078 10.3422C57.2031 10.2593 56.7837 10.3018 56.4026 10.4644C56.0214 10.627 55.6957 10.9023 55.4665 11.2555C55.2373 11.6087 55.1149 12.024 55.1149 12.4488C55.1149 13.0185 55.3347 13.5648 55.7259 13.9677C56.1171 14.3705 56.6476 14.5968 57.2008 14.5968ZM55.1114 28.5881H59.3396V16.1148H55.1114V28.5881ZM74.5483 14.4893H69.6047L65.3436 18.8816V10.2862H61.1439L61.1296 28.5881H65.3715V23.8191L66.6927 22.588L70.8088 28.5881H75.3429L69.3803 19.8132L74.5483 14.4893ZM115.104 19.8132L120.274 14.4893H115.331L111.07 18.8816V10.2862H106.869L106.856 28.5881H111.097V23.8191L112.422 22.588L116.538 28.5881H121.068L115.104 19.8132ZM104.235 21.1774C104.235 25.3136 100.935 28.6668 96.8642 28.6668C92.7932 28.6668 89.4939 25.3136 89.4939 21.1774C89.4939 17.0412 92.7939 13.688 96.8642 13.688C100.935 13.688 104.237 17.042 104.237 21.1774H104.235ZM100.48 21.1774C100.48 20.441 100.268 19.7211 99.8707 19.1088C99.4734 18.4965 98.9087 18.0193 98.248 17.7375C97.5873 17.4557 96.8602 17.3819 96.1588 17.5256C95.4574 17.6693 94.8131 18.0239 94.3075 18.5446C93.8018 19.0653 93.4574 19.7288 93.3179 20.451C93.1784 21.1733 93.25 21.9219 93.5236 22.6023C93.7973 23.2826 94.2608 23.8641 94.8554 24.2733C95.45 24.6824 96.1491 24.9008 96.8642 24.9008C97.3392 24.9011 97.8096 24.805 98.2485 24.618C98.6874 24.431 99.0862 24.1567 99.4222 23.811C99.7581 23.4652 100.025 23.0546 100.206 22.6027C100.388 22.1508 100.482 21.6665 100.482 21.1774H100.48Z" fill="white"/>
</svg>
